<svg width="19" height="18" viewBox="0 0 19 18" fill="none" xmlns="http://www.w3.org/2000/svg">
<path fill-rule="evenodd" clip-rule="evenodd" d="M9.29508 13.6363C12.7715 13.6363 15.5902 11.2552 15.5902 8.31856C15.5902 5.38111 12.7715 3 9.29508 3C5.81862 3 3 5.38111 3 8.31856C3 9.46505 3.42964 10.5273 4.16066 11.3953L3.39344 15L6.47489 13.0745C7.3678 13.4489 8.32687 13.6399 9.29508 13.6363Z" stroke="black" stroke-width="1.14286" stroke-linecap="round" stroke-linejoin="round"/>
<path fill-rule="evenodd" clip-rule="evenodd" d="M9.2943 9.29508C9.68774 9.29508 10.0812 8.90164 10.0812 8.5082C10.0812 8.11476 9.68774 7.72131 9.2943 7.72131C8.90085 7.72131 8.5082 8.11476 8.5082 8.5082C8.5082 8.90164 8.90085 9.29508 9.2943 9.29508ZM6.14676 9.29508C6.5402 9.29508 6.93364 8.90164 6.93364 8.5082C6.93364 8.11476 6.5402 7.72131 6.14676 7.72131C5.75331 7.72131 5.36066 8.11476 5.36066 8.5082C5.36066 8.90164 5.75331 9.29508 6.14676 9.29508ZM12.4418 9.29508C12.8353 9.29508 13.2295 8.90164 13.2295 8.5082C13.2295 8.11476 12.8361 7.72131 12.4426 7.72131C12.0492 7.72131 11.6557 8.11476 11.6557 8.5082C11.6557 8.90164 12.0492 9.29508 12.4426 9.29508" fill="black"/>
</svg>
