<svg width="43" height="43" viewBox="0 0 43 43" fill="none" xmlns="http://www.w3.org/2000/svg">
<path d="M22.2333 21.3333L19.0667 24.5C18.8222 24.7444 18.7 25.05 18.7 25.4167C18.7 25.7833 18.8222 26.1 19.0667 26.3667C19.3333 26.6333 19.65 26.7667 20.0167 26.7667C20.3833 26.7667 20.7 26.6333 20.9667 26.3667L25.0667 22.2667C25.3333 22 25.4667 21.6889 25.4667 21.3333C25.4667 20.9778 25.3333 20.6667 25.0667 20.4L20.9333 16.2667C20.6667 16 20.3556 15.8722 20 15.8833C19.6444 15.8944 19.3333 16.0333 19.0667 16.3C18.8222 16.5667 18.6944 16.8778 18.6833 17.2333C18.6722 17.5889 18.8 17.9 19.0667 18.1667L22.2333 21.3333ZM21.3333 34.6667C19.4889 34.6667 17.7556 34.3167 16.1333 33.6167C14.5111 32.9167 13.1 31.9667 11.9 30.7667C10.7 29.5667 9.75 28.1556 9.05 26.5333C8.35 24.9111 8 23.1778 8 21.3333C8 19.4889 8.35 17.7556 9.05 16.1333C9.75 14.5111 10.7 13.1 11.9 11.9C13.1 10.7 14.5111 9.75 16.1333 9.05C17.7556 8.35 19.4889 8 21.3333 8C23.1778 8 24.9111 8.35 26.5333 9.05C28.1556 9.75 29.5667 10.7 30.7667 11.9C31.9667 13.1 32.9167 14.5111 33.6167 16.1333C34.3167 17.7556 34.6667 19.4889 34.6667 21.3333C34.6667 23.1778 34.3167 24.9111 33.6167 26.5333C32.9167 28.1556 31.9667 29.5667 30.7667 30.7667C29.5667 31.9667 28.1556 32.9167 26.5333 33.6167C24.9111 34.3167 23.1778 34.6667 21.3333 34.6667Z" fill="black"/>
</svg>
