<svg width="32" height="32" viewBox="0 0 32 32" fill="none" xmlns="http://www.w3.org/2000/svg">
<path d="M25.3333 22.9993C25.6307 22.9997 25.9167 23.1135 26.1329 23.3177C26.3492 23.5218 26.4793 23.8008 26.4967 24.0976C26.5141 24.3945 26.4175 24.6868 26.2267 24.9148C26.0358 25.1428 25.7651 25.2894 25.4698 25.3245L25.3333 25.3327H6.66667C6.36931 25.3324 6.0833 25.2185 5.86707 25.0144C5.65084 24.8102 5.52073 24.5312 5.5033 24.2344C5.48587 23.9375 5.58245 23.6452 5.77331 23.4172C5.96416 23.1892 6.23489 23.0426 6.53017 23.0075L6.66667 22.9993H25.3333ZM25.3333 14.8327C25.6428 14.8327 25.9395 14.9556 26.1583 15.1744C26.3771 15.3932 26.5 15.6899 26.5 15.9993C26.5 16.3088 26.3771 16.6055 26.1583 16.8243C25.9395 17.0431 25.6428 17.166 25.3333 17.166H6.66667C6.35725 17.166 6.0605 17.0431 5.84171 16.8243C5.62292 16.6055 5.5 16.3088 5.5 15.9993C5.5 15.6899 5.62292 15.3932 5.84171 15.1744C6.0605 14.9556 6.35725 14.8327 6.66667 14.8327H25.3333ZM25.3333 6.66602C25.6428 6.66602 25.9395 6.78893 26.1583 7.00772C26.3771 7.22652 26.5 7.52326 26.5 7.83268C26.5 8.1421 26.3771 8.43885 26.1583 8.65764C25.9395 8.87643 25.6428 8.99935 25.3333 8.99935H6.66667C6.35725 8.99935 6.0605 8.87643 5.84171 8.65764C5.62292 8.43885 5.5 8.1421 5.5 7.83268C5.5 7.52326 5.62292 7.22652 5.84171 7.00772C6.0605 6.78893 6.35725 6.66602 6.66667 6.66602H25.3333Z" fill="black"/>
</svg>
