<svg width="50" height="50" viewBox="0 0 50 50" fill="none" xmlns="http://www.w3.org/2000/svg">
<path fill-rule="evenodd" clip-rule="evenodd" d="M23.9994 11.6667C22.1922 11.6669 20.4112 12.0992 18.805 12.9277C17.1989 13.7561 15.8142 14.9566 14.7663 16.4291C13.7185 17.9015 13.038 19.6032 12.7816 21.3921C12.5252 23.1811 12.7004 25.0054 13.2924 26.7129C13.8844 28.4203 14.8762 29.9615 16.185 31.2077C17.4938 32.4539 19.0816 33.3691 20.816 33.8769C22.5505 34.3846 24.3812 34.4703 26.1554 34.1266C27.9296 33.783 29.596 33.02 31.0154 31.9014L35.8847 36.7707C36.1362 37.0136 36.473 37.148 36.8226 37.145C37.1722 37.1419 37.5066 37.0017 37.7538 36.7545C38.001 36.5073 38.1412 36.1729 38.1443 35.8233C38.1473 35.4737 38.0129 35.1369 37.77 34.8854L32.9007 30.0161C34.218 28.3449 35.0382 26.3366 35.2675 24.221C35.4967 22.1055 35.1258 19.9681 34.197 18.0535C33.2682 16.139 31.8192 14.5246 30.0158 13.3951C28.2123 12.2656 26.1273 11.6666 23.9994 11.6667ZM15.3327 23.0001C15.3327 20.7015 16.2458 18.4971 17.8711 16.8718C19.4964 15.2465 21.7008 14.3334 23.9994 14.3334C26.2979 14.3334 28.5023 15.2465 30.1276 16.8718C31.7529 18.4971 32.666 20.7015 32.666 23.0001C32.666 25.2986 31.7529 27.503 30.1276 29.1283C28.5023 30.7537 26.2979 31.6667 23.9994 31.6667C21.7008 31.6667 19.4964 30.7537 17.8711 29.1283C16.2458 27.503 15.3327 25.2986 15.3327 23.0001Z" fill="#1E1E1E"/>
</svg>
