<svg width="302" height="51" viewBox="0 0 302 51" fill="none" xmlns="http://www.w3.org/2000/svg">
<rect width="302" height="51" rx="12" fill="white"/>
<path d="M112.953 32.2656H111.781V18.375H112.953V32.2656ZM110.031 31.5625H108.859V25.0781H105.914C105.029 26.776 103.656 28.1719 101.797 29.2656L101.078 28.375C102.562 27.5 103.698 26.4531 104.484 25.2344C105.276 24.0104 105.729 22.6562 105.844 21.1719H101.672V20.1562H107.062C107.052 21.5729 106.82 22.8802 106.367 24.0781H108.859V18.75H110.031V31.5625ZM121.812 20.4219C121.812 21.1771 122.065 21.9089 122.57 22.6172C123.081 23.3203 123.734 23.9193 124.531 24.4141C125.328 24.9036 126.135 25.224 126.953 25.375L126.391 26.4062C125.682 26.2396 124.984 25.9688 124.297 25.5938C123.609 25.2188 122.992 24.7552 122.445 24.2031C121.898 23.651 121.479 23.0443 121.188 22.3828C120.896 23.0391 120.477 23.6432 119.93 24.1953C119.383 24.7474 118.766 25.2135 118.078 25.5938C117.396 25.9688 116.698 26.2396 115.984 26.4062L115.422 25.375C116.24 25.2135 117.044 24.8906 117.836 24.4062C118.628 23.9167 119.273 23.3203 119.773 22.6172C120.279 21.9141 120.531 21.1823 120.531 20.4219V19.3594H121.812V20.4219ZM127.609 30.375H114.891V29.3594H127.609V30.375ZM139.969 26.8906H130.359V19.5781H139.812V20.6094H131.609V22.6719H139.516V23.6562H131.609V25.8906H139.969V26.8906ZM141.438 30.4531H128.719V29.4375H141.438V30.4531ZM155.266 30.5469H142.547V29.5156H148.266V26.8906H144.141V22.6094H152.453V20.4219H144.109V19.4062H153.656V23.6094H145.359V25.875H153.984V26.8906H149.469V29.5156H155.266V30.5469ZM173.109 30.5469H160.391V29.5156H166.109V26.8906H161.984V22.6094H170.297V20.4219H161.953V19.4062H171.5V23.6094H163.203V25.875H171.828V26.8906H167.312V29.5156H173.109V30.5469ZM185.172 21.25C185.172 22.0469 185.161 22.7422 185.141 23.3359C185.125 23.9297 185.081 24.6224 185.008 25.4141C184.935 26.2057 184.818 27.0677 184.656 28L183.406 27.875C183.578 26.9948 183.706 26.1667 183.789 25.3906C183.872 24.6094 183.922 23.9219 183.938 23.3281C183.958 22.7292 183.969 22.0365 183.969 21.25V20.875H175.594V19.8594H185.172V21.25ZM186.875 30.2188H174.219V29.2031H186.875V30.2188ZM199.516 28.5469H198.297V18.3906H199.516V28.5469ZM199.953 31.9688H190.547V27.5156H191.766V30.9375H199.953V31.9688ZM192.016 19.3594C192.703 19.3594 193.323 19.5052 193.875 19.7969C194.432 20.0833 194.867 20.487 195.18 21.0078C195.497 21.5234 195.656 22.1094 195.656 22.7656C195.656 23.4323 195.497 24.026 195.18 24.5469C194.867 25.0625 194.432 25.4661 193.875 25.7578C193.323 26.0443 192.703 26.1875 192.016 26.1875C191.328 26.1875 190.706 26.0443 190.148 25.7578C189.596 25.4661 189.161 25.0625 188.844 24.5469C188.531 24.026 188.375 23.4323 188.375 22.7656C188.375 22.1094 188.531 21.5234 188.844 21.0078C189.161 20.487 189.596 20.0833 190.148 19.7969C190.706 19.5052 191.328 19.3594 192.016 19.3594ZM192.016 20.4375C191.552 20.4375 191.133 20.5365 190.758 20.7344C190.388 20.9323 190.096 21.2083 189.883 21.5625C189.674 21.9167 189.573 22.3177 189.578 22.7656C189.573 23.2188 189.674 23.625 189.883 23.9844C190.096 24.3385 190.388 24.6146 190.758 24.8125C191.133 25.0104 191.552 25.1094 192.016 25.1094C192.469 25.1094 192.88 25.0104 193.25 24.8125C193.625 24.6146 193.919 24.3385 194.133 23.9844C194.346 23.625 194.453 23.2188 194.453 22.7656C194.453 22.3229 194.346 21.9245 194.133 21.5703C193.919 21.2161 193.625 20.9401 193.25 20.7422C192.88 20.5391 192.469 20.4375 192.016 20.4375Z" fill="black"/>
</svg>
