<svg width="300" height="300" viewBox="0 0 300 300" fill="none" xmlns="http://www.w3.org/2000/svg">
<g clip-path="url(#clip0_429_113)">
<rect width="300" height="300" rx="12" fill="#E3E3E3"/>
<g clip-path="url(#clip1_429_113)">
<path d="M235.091 10H64.9091C62.1979 10 60 12.1979 60 14.9091V140.091C60 142.802 62.1979 145 64.9091 145H235.091C237.802 145 240 142.802 240 140.091V14.9091C240 12.1979 237.802 10 235.091 10Z" fill="#F3F5F8"/>
<path d="M60 14.9091C60 12.1979 62.1979 10 64.9091 10H235.091C237.802 10 240 12.1979 240 14.9091V29.6364H60V14.9091Z" fill="black"/>
<path fill-rule="evenodd" clip-rule="evenodd" d="M69.8182 22.2727C71.1738 22.2727 72.2727 21.1738 72.2727 19.8182C72.2727 18.4625 71.1738 17.3636 69.8182 17.3636C68.4625 17.3636 67.3636 18.4625 67.3636 19.8182C67.3636 21.1738 68.4625 22.2727 69.8182 22.2727ZM78 22.2727C79.3557 22.2727 80.4546 21.1738 80.4546 19.8182C80.4546 18.4625 79.3557 17.3636 78 17.3636C76.6444 17.3636 75.5455 18.4625 75.5455 19.8182C75.5455 21.1738 76.6444 22.2727 78 22.2727ZM88.6364 19.8182C88.6364 21.1738 87.5375 22.2727 86.1818 22.2727C84.8262 22.2727 83.7273 21.1738 83.7273 19.8182C83.7273 18.4625 84.8262 17.3636 86.1818 17.3636C87.5375 17.3636 88.6364 18.4625 88.6364 19.8182Z" fill="white"/>
<path d="M217.909 43.5455H82.0909C80.2834 43.5455 78.8182 45.0107 78.8182 46.8182V109C78.8182 110.808 80.2834 112.273 82.0909 112.273H217.909C219.717 112.273 221.182 110.808 221.182 109V46.8182C221.182 45.0107 219.717 43.5455 217.909 43.5455Z" fill="#FF0000"/>
<path fill-rule="evenodd" clip-rule="evenodd" d="M157.26 77.7908C157.863 78.0923 157.863 78.9529 157.26 79.2544L144.638 85.5651C144.094 85.8371 143.455 85.4415 143.455 84.8333V72.2119C143.455 71.6037 144.094 71.2082 144.638 71.4802L157.26 77.7908Z" fill="white"/>
<path fill-rule="evenodd" clip-rule="evenodd" d="M221.182 128.636C221.182 130.444 219.716 131.909 217.909 131.909H82.0909C80.2835 131.909 78.8182 130.444 78.8182 128.636V107.364H221.182V128.636Z" fill="white"/>
<path d="M160.636 118H88.6364C87.7326 118 87 118.733 87 119.636C87 120.54 87.7326 121.273 88.6364 121.273H160.636C161.54 121.273 162.273 120.54 162.273 119.636C162.273 118.733 161.54 118 160.636 118Z" fill="#E0E7EC"/>
<path fill-rule="evenodd" clip-rule="evenodd" d="M105 122.909C106.807 122.909 108.273 121.444 108.273 119.636C108.273 117.829 106.807 116.364 105 116.364C103.193 116.364 101.727 117.829 101.727 119.636C101.727 121.444 103.193 122.909 105 122.909Z" fill="#94A2AB"/>
<path d="M211.364 118H190.091C189.187 118 188.455 118.733 188.455 119.636C188.455 120.54 189.187 121.273 190.091 121.273H211.364C212.267 121.273 213 120.54 213 119.636C213 118.733 212.267 118 211.364 118Z" fill="#E0E7EC"/>
<path fill-rule="evenodd" clip-rule="evenodd" d="M204.818 122.909C206.626 122.909 208.091 121.444 208.091 119.636C208.091 117.829 206.626 116.364 204.818 116.364C203.011 116.364 201.545 117.829 201.545 119.636C201.545 121.444 203.011 122.909 204.818 122.909Z" fill="#94A2AB"/>
</g>
<g clip-path="url(#clip2_429_113)">
<path d="M235.091 155H64.9091C62.1979 155 60 157.198 60 159.909V285.091C60 287.802 62.1979 290 64.9091 290H235.091C237.802 290 240 287.802 240 285.091V159.909C240 157.198 237.802 155 235.091 155Z" fill="#F3F5F8"/>
<path d="M60 159.909C60 157.198 62.1979 155 64.9091 155H235.091C237.802 155 240 157.198 240 159.909V174.636H60V159.909Z" fill="black"/>
<path fill-rule="evenodd" clip-rule="evenodd" d="M69.8182 167.273C71.1738 167.273 72.2727 166.174 72.2727 164.818C72.2727 163.463 71.1738 162.364 69.8182 162.364C68.4625 162.364 67.3636 163.463 67.3636 164.818C67.3636 166.174 68.4625 167.273 69.8182 167.273ZM78 167.273C79.3557 167.273 80.4546 166.174 80.4546 164.818C80.4546 163.463 79.3557 162.364 78 162.364C76.6444 162.364 75.5455 163.463 75.5455 164.818C75.5455 166.174 76.6444 167.273 78 167.273ZM88.6364 164.818C88.6364 166.174 87.5375 167.273 86.1818 167.273C84.8262 167.273 83.7273 166.174 83.7273 164.818C83.7273 163.463 84.8262 162.364 86.1818 162.364C87.5375 162.364 88.6364 163.463 88.6364 164.818Z" fill="white"/>
<path d="M116.455 182.818H73.9091C72.1016 182.818 70.6364 184.283 70.6364 186.091V223.727C70.6364 225.535 72.1016 227 73.9091 227H116.455C118.262 227 119.727 225.535 119.727 223.727V186.091C119.727 184.283 118.262 182.818 116.455 182.818Z" fill="#FF0000"/>
<path fill-rule="evenodd" clip-rule="evenodd" d="M102.442 204.791C103.045 205.092 103.045 205.953 102.442 206.254L89.8204 212.565C89.2764 212.837 88.6364 212.442 88.6364 211.833V199.212C88.6364 198.604 89.2764 198.208 89.8204 198.48L102.442 204.791Z" fill="white"/>
<path d="M226.091 182.818H131.182C129.374 182.818 127.909 184.283 127.909 186.091V199.182C127.909 200.989 129.374 202.455 131.182 202.455H226.091C227.898 202.455 229.364 200.989 229.364 199.182V186.091C229.364 184.283 227.898 182.818 226.091 182.818Z" fill="#E7EDF2"/>
<path d="M219.545 191H137.727C136.824 191 136.091 191.733 136.091 192.636C136.091 193.54 136.824 194.273 137.727 194.273H219.545C220.449 194.273 221.182 193.54 221.182 192.636C221.182 191.733 220.449 191 219.545 191Z" fill="#94A2AB"/>
<path d="M226.091 209H131.182C129.374 209 127.909 210.465 127.909 212.273V225.364C127.909 227.171 129.374 228.636 131.182 228.636H226.091C227.898 228.636 229.364 227.171 229.364 225.364V212.273C229.364 210.465 227.898 209 226.091 209Z" fill="#E0E7EC"/>
<path d="M219.545 217.182H137.727C136.824 217.182 136.091 217.914 136.091 218.818C136.091 219.722 136.824 220.455 137.727 220.455H219.545C220.449 220.455 221.182 219.722 221.182 218.818C221.182 217.914 220.449 217.182 219.545 217.182Z" fill="#94A2AB"/>
<path d="M226.091 235.182H131.182C129.374 235.182 127.909 236.647 127.909 238.455V251.545C127.909 253.353 129.374 254.818 131.182 254.818H226.091C227.898 254.818 229.364 253.353 229.364 251.545V238.455C229.364 236.647 227.898 235.182 226.091 235.182Z" fill="#E0E7EC"/>
<path d="M219.545 243.364H137.727C136.824 243.364 136.091 244.096 136.091 245C136.091 245.904 136.824 246.636 137.727 246.636H219.545C220.449 246.636 221.182 245.904 221.182 245C221.182 244.096 220.449 243.364 219.545 243.364Z" fill="#94A2AB"/>
<path d="M226.091 261.364H131.182C129.374 261.364 127.909 262.829 127.909 264.636V277.727C127.909 279.535 129.374 281 131.182 281H226.091C227.898 281 229.364 279.535 229.364 277.727V264.636C229.364 262.829 227.898 261.364 226.091 261.364Z" fill="#E0E7EC"/>
<path d="M219.545 269.545H137.727C136.824 269.545 136.091 270.278 136.091 271.182C136.091 272.086 136.824 272.818 137.727 272.818H219.545C220.449 272.818 221.182 272.086 221.182 271.182C221.182 270.278 220.449 269.545 219.545 269.545Z" fill="#94A2AB"/>
</g>
<path d="M57.7097 181.6L18.1474 183.279L17.7498 173.916L41.3897 172.946L15 136L78.5 67L78.5 79L25 136L47.7034 166.072L46.6666 142.435L56.0297 142.037L57.7097 181.6Z" fill="#0075FF"/>
</g>
<defs>
<clipPath id="clip0_429_113">
<rect width="300" height="300" rx="12" fill="white"/>
</clipPath>
<clipPath id="clip1_429_113">
<rect width="180" height="135" fill="white" transform="translate(60 10)"/>
</clipPath>
<clipPath id="clip2_429_113">
<rect width="180" height="135" fill="white" transform="translate(60 155)"/>
</clipPath>
</defs>
</svg>
