<svg width="302" height="51" viewBox="0 0 302 51" fill="none" xmlns="http://www.w3.org/2000/svg">
<rect width="302" height="51" rx="12" fill="white"/>
<path d="M108.266 19.8281C108.26 21.2708 108.065 22.6016 107.68 23.8203C107.294 25.0339 106.633 26.1667 105.695 27.2188C104.758 28.2656 103.49 29.1823 101.891 29.9688L101.203 29.0312C102.479 28.4167 103.529 27.7135 104.352 26.9219C105.174 26.125 105.802 25.2448 106.234 24.2812L101.469 24.7344L101.266 23.6562L106.609 23.2969C106.844 22.5365 106.99 21.7188 107.047 20.8438H101.969V19.8281H108.266ZM111.812 24.0312H114.062V25.0625H111.812V32.2656H110.594V18.375H111.812V24.0312ZM122.094 19.8281C122.089 21.2708 121.893 22.6016 121.508 23.8203C121.122 25.0339 120.461 26.1667 119.523 27.2188C118.586 28.2656 117.318 29.1823 115.719 29.9688L115.031 29.0312C116.307 28.4167 117.357 27.7135 118.18 26.9219C119.003 26.125 119.63 25.2448 120.062 24.2812L115.297 24.7344L115.094 23.6562L120.438 23.2969C120.672 22.5365 120.818 21.7188 120.875 20.8438H115.797V19.8281H122.094ZM125.641 24.0312H127.891V25.0625H125.641V32.2656H124.422V18.375H125.641V24.0312ZM135.047 19.2812C136.026 19.2865 136.901 19.4401 137.672 19.7422C138.443 20.0443 139.044 20.4714 139.477 21.0234C139.909 21.5703 140.125 22.2031 140.125 22.9219C140.125 23.599 139.935 24.2005 139.555 24.7266C139.18 25.2526 138.654 25.6719 137.977 25.9844C137.299 26.2969 136.521 26.4818 135.641 26.5391V29.4531H141.438V30.4844H128.719V29.4531H134.438V26.5391C133.562 26.4818 132.786 26.2969 132.109 25.9844C131.432 25.6667 130.906 25.2474 130.531 24.7266C130.156 24.2005 129.969 23.599 129.969 22.9219C129.969 22.2031 130.185 21.5703 130.617 21.0234C131.049 20.4714 131.651 20.0443 132.422 19.7422C133.193 19.4401 134.068 19.2865 135.047 19.2812ZM135.047 20.2969C134.302 20.2969 133.633 20.4089 133.039 20.6328C132.451 20.8516 131.99 21.1615 131.656 21.5625C131.323 21.9583 131.156 22.4115 131.156 22.9219C131.156 23.4479 131.323 23.9115 131.656 24.3125C131.99 24.7135 132.451 25.0234 133.039 25.2422C133.628 25.4609 134.297 25.5729 135.047 25.5781C135.797 25.5729 136.466 25.4609 137.055 25.2422C137.643 25.0234 138.104 24.7135 138.438 24.3125C138.771 23.9115 138.938 23.4479 138.938 22.9219C138.938 22.4115 138.771 21.9583 138.438 21.5625C138.104 21.1615 137.641 20.8516 137.047 20.6328C136.458 20.4089 135.792 20.2969 135.047 20.2969ZM155.266 30.5469H142.547V29.5156H148.266V26.8906H144.141V22.6094H152.453V20.4219H144.109V19.4062H153.656V23.6094H145.359V25.875H153.984V26.8906H149.469V29.5156H155.266V30.5469ZM173.109 30.5469H160.391V29.5156H166.109V26.8906H161.984V22.6094H170.297V20.4219H161.953V19.4062H171.5V23.6094H163.203V25.875H171.828V26.8906H167.312V29.5156H173.109V30.5469ZM185.172 21.25C185.172 22.0469 185.161 22.7422 185.141 23.3359C185.125 23.9297 185.081 24.6224 185.008 25.4141C184.935 26.2057 184.818 27.0677 184.656 28L183.406 27.875C183.578 26.9948 183.706 26.1667 183.789 25.3906C183.872 24.6094 183.922 23.9219 183.938 23.3281C183.958 22.7292 183.969 22.0365 183.969 21.25V20.875H175.594V19.8594H185.172V21.25ZM186.875 30.2188H174.219V29.2031H186.875V30.2188ZM199.516 28.5469H198.297V18.3906H199.516V28.5469ZM199.953 31.9688H190.547V27.5156H191.766V30.9375H199.953V31.9688ZM192.016 19.3594C192.703 19.3594 193.323 19.5052 193.875 19.7969C194.432 20.0833 194.867 20.487 195.18 21.0078C195.497 21.5234 195.656 22.1094 195.656 22.7656C195.656 23.4323 195.497 24.026 195.18 24.5469C194.867 25.0625 194.432 25.4661 193.875 25.7578C193.323 26.0443 192.703 26.1875 192.016 26.1875C191.328 26.1875 190.706 26.0443 190.148 25.7578C189.596 25.4661 189.161 25.0625 188.844 24.5469C188.531 24.026 188.375 23.4323 188.375 22.7656C188.375 22.1094 188.531 21.5234 188.844 21.0078C189.161 20.487 189.596 20.0833 190.148 19.7969C190.706 19.5052 191.328 19.3594 192.016 19.3594ZM192.016 20.4375C191.552 20.4375 191.133 20.5365 190.758 20.7344C190.388 20.9323 190.096 21.2083 189.883 21.5625C189.674 21.9167 189.573 22.3177 189.578 22.7656C189.573 23.2188 189.674 23.625 189.883 23.9844C190.096 24.3385 190.388 24.6146 190.758 24.8125C191.133 25.0104 191.552 25.1094 192.016 25.1094C192.469 25.1094 192.88 25.0104 193.25 24.8125C193.625 24.6146 193.919 24.3385 194.133 23.9844C194.346 23.625 194.453 23.2188 194.453 22.7656C194.453 22.3229 194.346 21.9245 194.133 21.5703C193.919 21.2161 193.625 20.9401 193.25 20.7422C192.88 20.5391 192.469 20.4375 192.016 20.4375Z" fill="black"/>
</svg>
