<svg width="632" height="421" viewBox="0 0 632 421" fill="none" xmlns="http://www.w3.org/2000/svg">
<rect y="0.5" width="632" height="420" rx="12" fill="white"/>
<path d="M312.508 243.168H233.016V236.723H268.758V220.316H242.977V193.559H294.93V179.887H242.781V173.539H302.449V199.809H250.594V213.969H304.5V220.316H276.277V236.723H312.508V243.168ZM389.07 184.574V185.648C389.005 192.81 388.777 199.239 388.387 204.936C388.029 210.6 387.182 217.159 385.848 224.613L378.035 223.734C379.077 218.591 379.826 213.741 380.281 209.184C380.77 204.626 381.062 200.574 381.16 197.025C381.29 193.477 381.355 189.327 381.355 184.574V182.23H327.84V175.883H389.07V184.574ZM398.543 241.605H319.441V235.258H350.496V204.203H358.016V235.258H398.543V241.605Z" fill="black"/>
</svg>
