<svg width="302" height="51" viewBox="0 0 302 51" fill="none" xmlns="http://www.w3.org/2000/svg">
<rect width="302" height="51" rx="12" fill="white"/>
<path d="M102.969 27.6719C103.807 27.6615 104.586 27.625 105.305 27.5625C106.029 27.4948 106.781 27.3802 107.562 27.2188L107.734 28.2812C106.87 28.4635 106.039 28.5885 105.242 28.6562C104.451 28.7188 103.578 28.75 102.625 28.75H101.75V19.8906H102.969V27.6719ZM112.953 32.2656H111.781V18.375H112.953V32.2656ZM109.984 31.5625H108.812V24.0781H105.641V23.0625H108.812V18.7188H109.984V31.5625ZM126.344 32.2969H125.109V18.375H126.344V32.2969ZM118.953 19.4531C119.641 19.4583 120.253 19.6615 120.789 20.0625C121.326 20.4583 121.745 21.0208 122.047 21.75C122.349 22.4792 122.5 23.3281 122.5 24.2969C122.5 25.2656 122.349 26.1146 122.047 26.8438C121.745 27.5729 121.326 28.1354 120.789 28.5312C120.253 28.9271 119.641 29.125 118.953 29.125C118.266 29.125 117.651 28.9271 117.109 28.5312C116.573 28.1354 116.154 27.5729 115.852 26.8438C115.555 26.1146 115.406 25.2656 115.406 24.2969C115.406 23.3281 115.555 22.4792 115.852 21.75C116.154 21.0208 116.573 20.4583 117.109 20.0625C117.646 19.6615 118.26 19.4583 118.953 19.4531ZM118.953 20.5469C118.49 20.5521 118.078 20.7109 117.719 21.0234C117.365 21.3307 117.089 21.7682 116.891 22.3359C116.693 22.8984 116.594 23.5521 116.594 24.2969C116.594 25.0417 116.693 25.6979 116.891 26.2656C117.089 26.8281 117.367 27.263 117.727 27.5703C118.086 27.8776 118.495 28.0312 118.953 28.0312C119.411 28.0312 119.82 27.8776 120.18 27.5703C120.539 27.263 120.818 26.8281 121.016 26.2656C121.214 25.6979 121.312 25.0417 121.312 24.2969C121.312 23.5521 121.214 22.8984 121.016 22.3359C120.818 21.7682 120.539 21.3307 120.18 21.0234C119.826 20.7109 119.417 20.5521 118.953 20.5469ZM140.234 32.2969H139.016V24.5625H135.688V28.7812H129.281V19.4688H130.516V23.0938H134.484V19.4688H135.688V23.5469H139.016V18.375H140.234V32.2969ZM134.484 27.7656V24.0781H130.516V27.7656H134.484ZM155.266 30.5469H142.547V29.5156H148.266V26.8906H144.141V22.6094H152.453V20.4219H144.109V19.4062H153.656V23.6094H145.359V25.875H153.984V26.8906H149.469V29.5156H155.266V30.5469ZM173.109 30.5469H160.391V29.5156H166.109V26.8906H161.984V22.6094H170.297V20.4219H161.953V19.4062H171.5V23.6094H163.203V25.875H171.828V26.8906H167.312V29.5156H173.109V30.5469ZM185.172 21.25C185.172 22.0469 185.161 22.7422 185.141 23.3359C185.125 23.9297 185.081 24.6224 185.008 25.4141C184.935 26.2057 184.818 27.0677 184.656 28L183.406 27.875C183.578 26.9948 183.706 26.1667 183.789 25.3906C183.872 24.6094 183.922 23.9219 183.938 23.3281C183.958 22.7292 183.969 22.0365 183.969 21.25V20.875H175.594V19.8594H185.172V21.25ZM186.875 30.2188H174.219V29.2031H186.875V30.2188ZM199.516 28.5469H198.297V18.3906H199.516V28.5469ZM199.953 31.9688H190.547V27.5156H191.766V30.9375H199.953V31.9688ZM192.016 19.3594C192.703 19.3594 193.323 19.5052 193.875 19.7969C194.432 20.0833 194.867 20.487 195.18 21.0078C195.497 21.5234 195.656 22.1094 195.656 22.7656C195.656 23.4323 195.497 24.026 195.18 24.5469C194.867 25.0625 194.432 25.4661 193.875 25.7578C193.323 26.0443 192.703 26.1875 192.016 26.1875C191.328 26.1875 190.706 26.0443 190.148 25.7578C189.596 25.4661 189.161 25.0625 188.844 24.5469C188.531 24.026 188.375 23.4323 188.375 22.7656C188.375 22.1094 188.531 21.5234 188.844 21.0078C189.161 20.487 189.596 20.0833 190.148 19.7969C190.706 19.5052 191.328 19.3594 192.016 19.3594ZM192.016 20.4375C191.552 20.4375 191.133 20.5365 190.758 20.7344C190.388 20.9323 190.096 21.2083 189.883 21.5625C189.674 21.9167 189.573 22.3177 189.578 22.7656C189.573 23.2188 189.674 23.625 189.883 23.9844C190.096 24.3385 190.388 24.6146 190.758 24.8125C191.133 25.0104 191.552 25.1094 192.016 25.1094C192.469 25.1094 192.88 25.0104 193.25 24.8125C193.625 24.6146 193.919 24.3385 194.133 23.9844C194.346 23.625 194.453 23.2188 194.453 22.7656C194.453 22.3229 194.346 21.9245 194.133 21.5703C193.919 21.2161 193.625 20.9401 193.25 20.7422C192.88 20.5391 192.469 20.4375 192.016 20.4375Z" fill="black"/>
</svg>
