<svg width="212" height="52" viewBox="0 0 212 52" fill="none" xmlns="http://www.w3.org/2000/svg">
<rect x="0.765015" y="0.5" width="210.47" height="51" rx="11.5" fill="white"/>
<rect x="0.765015" y="0.5" width="210.47" height="51" rx="11.5" stroke="black"/>
<path d="M49.75 23.75C52.2353 23.75 54.25 21.7353 54.25 19.25C54.25 16.7647 52.2353 14.75 49.75 14.75C47.2647 14.75 45.25 16.7647 45.25 19.25C45.25 21.7353 47.2647 23.75 49.75 23.75Z" stroke="black" stroke-width="1.5" stroke-linecap="round"/>
<path d="M58 35.75V32.75C58 28.103 54.2575 23.75 49.75 23.75C45.241 23.75 41.5 28.103 41.5 32.75V35.75" stroke="black" stroke-width="1.5" stroke-linecap="round"/>
<path d="M87.9531 18.875V32.7656H86.7812V18.875H87.9531ZM85.0312 19.25V32.0625H83.8594V25.5781H80.9219C80.0703 27.1953 78.7344 28.625 76.7969 29.7656L76.0781 28.875C79.1016 27.0859 80.6172 24.5781 80.8438 21.6719H76.6719V20.6562H82.0625C82.0547 22.0234 81.8359 23.3438 81.375 24.5781H83.8594V19.25H85.0312ZM96.8125 20.9219C96.8125 23.2969 99.5312 25.4219 101.953 25.875L101.391 26.9062C99.2969 26.4219 97.0859 24.9297 96.1875 22.875C95.2891 24.9219 93.0859 26.4141 90.9844 26.9062L90.4219 25.875C92.8281 25.4062 95.5312 23.3125 95.5312 20.9219V19.8594H96.8125V20.9219ZM102.609 29.8594V30.875H89.8906V29.8594H102.609ZM114.969 26.3906V27.3906H105.359V20.0781H114.812V21.1094H106.609V23.1719H114.516V24.1562H106.609V26.3906H114.969ZM116.438 29.9375V30.9531H103.719V29.9375H116.438ZM130.266 30.0156V31.0469H117.547V30.0156H123.266V27.3906H119.141V23.1094H127.453V20.9219H119.109V19.9062H128.656V24.1094H120.359V26.375H128.984V27.3906H124.469V30.0156H130.266ZM148.109 30.0156V31.0469H135.391V30.0156H141.109V27.3906H136.984V23.1094H145.297V20.9219H136.953V19.9062H146.5V24.1094H138.203V26.375H146.828V27.3906H142.312V30.0156H148.109ZM160.172 20.3594V21.75C160.172 23.5 160.172 25.4844 159.656 28.5L158.406 28.375C158.969 25.5312 158.969 23.4531 158.969 21.75V21.375H150.594V20.3594H160.172ZM161.875 29.7031V30.7188H149.219V29.7031H161.875ZM174.516 18.8906V29.0469H173.297V18.8906H174.516ZM174.953 31.4375V32.4688H165.547V28.0156H166.766V31.4375H174.953ZM167.016 19.8594C169.094 19.8594 170.656 21.2656 170.656 23.2656C170.656 25.2969 169.094 26.6875 167.016 26.6875C164.938 26.6875 163.375 25.2969 163.375 23.2656C163.375 21.2656 164.938 19.8594 167.016 19.8594ZM167.016 20.9375C165.609 20.9375 164.562 21.9062 164.578 23.2656C164.562 24.6562 165.609 25.6094 167.016 25.6094C168.391 25.6094 169.453 24.6562 169.453 23.2656C169.453 21.9062 168.391 20.9375 167.016 20.9375Z" fill="black"/>
</svg>
