<svg width="50" height="50" viewBox="0 0 50 50" fill="none" xmlns="http://www.w3.org/2000/svg">
<circle cx="25" cy="25" r="25" fill="#DBDFFF"/>
<path d="M29.4907 14.284C28.3504 13.0529 26.7579 12.375 25.0001 12.375C23.2329 12.375 21.635 13.0488 20.5001 14.2723C19.3528 15.5092 18.7938 17.1902 18.9251 19.0055C19.1852 22.5867 21.9104 25.5 25.0001 25.5C28.0897 25.5 30.8102 22.5873 31.0745 19.0066C31.2075 17.2078 30.645 15.5303 29.4907 14.284Z" fill="#373C6B"/>
<path d="M35.3123 38.625H14.6873C14.4174 38.6285 14.15 38.5718 13.9047 38.459C13.6595 38.3462 13.4424 38.1801 13.2694 37.9729C12.8885 37.5176 12.735 36.8959 12.8487 36.2672C13.3432 33.5238 14.8866 31.2193 17.3123 29.6016C19.4674 28.1654 22.1973 27.375 24.9998 27.375C27.8024 27.375 30.5323 28.166 32.6873 29.6016C35.1131 31.2188 36.6565 33.5232 37.151 36.2666C37.2647 36.8953 37.1112 37.517 36.7303 37.9723C36.5573 38.1796 36.3403 38.3458 36.095 38.4587C35.8497 38.5716 35.5824 38.6284 35.3123 38.625Z" fill="#373C6B"/>
</svg>
