<svg width="17" height="16" viewBox="0 0 17 16" fill="none" xmlns="http://www.w3.org/2000/svg">
<path fill-rule="evenodd" clip-rule="evenodd" d="M8.295 11.8998C11.2192 11.8998 13.59 9.89698 13.59 7.42686C13.59 4.95608 11.2192 2.95325 8.295 2.95325C5.37084 2.95325 3 4.95608 3 7.42686C3 8.39121 3.36138 9.28474 3.97627 10.0148L3.33094 13.0468L5.92284 11.4272C6.6739 11.7421 7.4806 11.9028 8.295 11.8998Z" stroke="black" stroke-width="1.14286" stroke-linecap="round" stroke-linejoin="round"/>
<path fill-rule="evenodd" clip-rule="evenodd" d="M8.29406 8.24819C8.625 8.24819 8.95594 7.91725 8.95594 7.58631C8.95594 7.25538 8.625 6.92444 8.29406 6.92444C7.96313 6.92444 7.63285 7.25538 7.63285 7.58631C7.63285 7.91725 7.96313 8.24819 8.29406 8.24819ZM5.64656 8.24819C5.9775 8.24819 6.30844 7.91725 6.30844 7.58631C6.30844 7.25538 5.9775 6.92444 5.64656 6.92444C5.31563 6.92444 4.98535 7.25538 4.98535 7.58631C4.98535 7.91725 5.31563 8.24819 5.64656 8.24819ZM10.9416 8.24819C11.2725 8.24819 11.6041 7.91725 11.6041 7.58631C11.6041 7.25538 11.2732 6.92444 10.9422 6.92444C10.6113 6.92444 10.2804 7.25538 10.2804 7.58631C10.2804 7.91725 10.6113 8.24819 10.9422 8.24819" fill="black"/>
</svg>
