<svg width="35" height="35" viewBox="0 0 35 35" fill="none" xmlns="http://www.w3.org/2000/svg">
<path d="M24.3359 4.92188C21.5893 4.92188 19.1516 6.00605 17.5 7.86953C15.8484 6.00605 13.4107 4.92188 10.6641 4.92188C8.27179 4.92477 5.97832 5.87638 4.28673 7.56798C2.59513 9.25957 1.64352 11.553 1.64062 13.9453C1.64063 23.8355 16.1068 31.7379 16.7221 32.0701C16.9612 32.1989 17.2285 32.2663 17.5 32.2663C17.7715 32.2663 18.0388 32.1989 18.2779 32.0701C18.8932 31.7379 33.3594 23.8355 33.3594 13.9453C33.3565 11.553 32.4049 9.25957 30.7133 7.56798C29.0217 5.87638 26.7282 4.92477 24.3359 4.92188ZM23.5854 24.3852C21.6812 26.0009 19.6457 27.4552 17.5 28.7328C15.3543 27.4552 13.3188 26.0009 11.4146 24.3852C8.45195 21.8436 4.92188 17.9676 4.92188 13.9453C4.92188 12.4224 5.52685 10.9618 6.60372 9.88497C7.68059 8.8081 9.14114 8.20313 10.6641 8.20312C13.0977 8.20313 15.1348 9.48828 15.9811 11.5582C16.1042 11.86 16.3145 12.1182 16.585 12.2999C16.8555 12.4817 17.1741 12.5788 17.5 12.5788C17.8259 12.5788 18.1445 12.4817 18.415 12.2999C18.6855 12.1182 18.8958 11.86 19.0189 11.5582C19.8652 9.48828 21.9023 8.20312 24.3359 8.20312C25.8589 8.20312 27.3194 8.8081 28.3963 9.88497C29.4731 10.9618 30.0781 12.4224 30.0781 13.9453C30.0781 17.9676 26.548 21.8436 23.5854 24.3852Z" fill="#0075FF"/>
</svg>
