<svg width="35" height="35" viewBox="0 0 35 35" fill="none" xmlns="http://www.w3.org/2000/svg">
<path d="M17.4998 2.91675C15.5847 2.91675 13.6884 3.29396 11.919 4.02684C10.1497 4.75972 8.54205 5.83392 7.18786 7.18811C4.45296 9.92301 2.9165 13.6323 2.9165 17.5001C2.9165 21.3678 4.45296 25.0771 7.18786 27.8121C8.54205 29.1662 10.1497 30.2404 11.919 30.9733C13.6884 31.7062 15.5847 32.0834 17.4998 32.0834C21.3676 32.0834 25.0769 30.547 27.8118 27.8121C30.5467 25.0771 32.0832 21.3678 32.0832 17.5001C32.0832 15.585 31.706 13.6886 30.9731 11.9193C30.2402 10.1499 29.166 8.54229 27.8118 7.18811C26.4576 5.83392 24.85 4.75972 23.0806 4.02684C21.3113 3.29396 19.4149 2.91675 17.4998 2.91675ZM23.6248 23.6251L16.0415 18.9584V10.2084H18.229V17.7917L24.7915 21.7292L23.6248 23.6251Z" fill="#0075FF"/>
</svg>
