<svg width="35" height="35" viewBox="0 0 35 35" fill="none" xmlns="http://www.w3.org/2000/svg">
<path d="M17.4998 2.91669C15.5847 2.91669 13.6884 3.2939 11.919 4.02678C10.1497 4.75966 8.54205 5.83386 7.18786 7.18805C4.45296 9.92295 2.9165 13.6323 2.9165 17.5C2.9165 21.3678 4.45296 25.0771 7.18786 27.812C8.54205 29.1662 10.1497 30.2404 11.919 30.9733C13.6884 31.7061 15.5847 32.0834 17.4998 32.0834C21.3676 32.0834 25.0769 30.5469 27.8118 27.812C30.5467 25.0771 32.0832 21.3678 32.0832 17.5C32.0832 15.5849 31.706 13.6886 30.9731 11.9192C30.2402 10.1499 29.166 8.54223 27.8118 7.18805C26.4576 5.83386 24.85 4.75966 23.0806 4.02678C21.3113 3.2939 19.4149 2.91669 17.4998 2.91669ZM23.6248 23.625L16.0415 18.9584V10.2084H18.229V17.7917L24.7915 21.7292L23.6248 23.625Z" fill="#777777"/>
</svg>
